<svg xmlns="http://www.w3.org/2000/svg" xmlns:xlink="http://www.w3.org/1999/xlink" width="512" zoomAndPan="magnify" viewBox="0 0 384 383.999986" height="512" preserveAspectRatio="xMidYMid meet" version="1.0"><defs><clipPath id="1bc970622e"><path d="M 51.210938 0 L 332.789062 0 L 332.789062 384 L 51.210938 384 Z M 51.210938 0 " clip-rule="nonzero"/></clipPath><clipPath id="f919a239f4"><path d="M 0.210938 0 L 281.789062 0 L 281.789062 384 L 0.210938 384 Z M 0.210938 0 " clip-rule="nonzero"/></clipPath><clipPath id="6a5120c21b"><rect x="0" width="282" y="0" height="384"/></clipPath></defs><g clip-path="url(#1bc970622e)"><g transform="matrix(1, 0, 0, 1, 51, 0)"><g clip-path="url(#6a5120c21b)"><g clip-path="url(#f919a239f4)"><path fill="#ffffff" d="M 0.210938 0 L 281.789062 0 L 281.789062 383.867188 L 0.210938 383.867188 Z M 0.210938 0 " fill-opacity="1" fill-rule="nonzero"/></g></g></g></g><path fill="#e0182b" d="M 38.390625 0 L 38.390625 384 L 335.101562 384 L 335.101562 0 Z M 300.203125 349.082031 L 73.308594 349.082031 L 73.308594 34.917969 L 300.203125 34.917969 L 300.203125 349.101562 Z M 300.203125 349.082031 " fill-opacity="1" fill-rule="nonzero"/><path fill="#e0182b" d="M 274.03125 113.457031 L 224.152344 113.457031 L 249.09375 61.089844 L 149.359375 61.089844 L 99.480469 165.824219 L 174.277344 165.824219 L 174.277344 322.90625 Z M 274.03125 113.457031 " fill-opacity="1" fill-rule="nonzero"/></svg>